<mxfile host="app.diagrams.net" modified="2023-11-08T03:59:33.267Z" agent="Mozilla/5.0 (Windows NT 10.0; Win64; x64) AppleWebKit/537.36 (KHTML, like Gecko) Chrome/119.0.0.0 Safari/537.36" etag="2exZcJFoigorxEZBFOPP" version="22.0.8" type="google">
  <diagram name="Page-1" id="CtAqu_Ewa9IOqDz0TUkq">
    <mxGraphModel grid="1" page="1" gridSize="10" guides="1" tooltips="1" connect="1" arrows="1" fold="1" pageScale="1" pageWidth="827" pageHeight="1169" math="0" shadow="0">
      <root>
        <mxCell id="0" />
        <mxCell id="1" parent="0" />
        <mxCell id="b1p56JkDS0H2IpYGcqzU-3" style="edgeStyle=orthogonalEdgeStyle;rounded=0;orthogonalLoop=1;jettySize=auto;html=1;exitX=1;exitY=0.5;exitDx=0;exitDy=0;entryX=0;entryY=0.5;entryDx=0;entryDy=0;endArrow=none;endFill=0;" edge="1" parent="1" source="b1p56JkDS0H2IpYGcqzU-1" target="b1p56JkDS0H2IpYGcqzU-2">
          <mxGeometry relative="1" as="geometry" />
        </mxCell>
        <mxCell id="b1p56JkDS0H2IpYGcqzU-4" value="1" style="edgeLabel;html=1;align=center;verticalAlign=middle;resizable=0;points=[];" vertex="1" connectable="0" parent="b1p56JkDS0H2IpYGcqzU-3">
          <mxGeometry x="-0.0638" relative="1" as="geometry">
            <mxPoint as="offset" />
          </mxGeometry>
        </mxCell>
        <mxCell id="b1p56JkDS0H2IpYGcqzU-1" value="ResortManagementSystem" style="rounded=1;arcSize=10;whiteSpace=wrap;html=1;align=center;" vertex="1" parent="1">
          <mxGeometry x="51.5" y="670" width="150" height="40" as="geometry" />
        </mxCell>
        <mxCell id="b1p56JkDS0H2IpYGcqzU-6" style="edgeStyle=orthogonalEdgeStyle;rounded=0;orthogonalLoop=1;jettySize=auto;html=1;exitX=1;exitY=0.5;exitDx=0;exitDy=0;entryX=0;entryY=0.5;entryDx=0;entryDy=0;endArrow=none;endFill=0;" edge="1" parent="1" source="b1p56JkDS0H2IpYGcqzU-2" target="b1p56JkDS0H2IpYGcqzU-5">
          <mxGeometry relative="1" as="geometry" />
        </mxCell>
        <mxCell id="b1p56JkDS0H2IpYGcqzU-7" value="1..N" style="edgeLabel;html=1;align=center;verticalAlign=middle;resizable=0;points=[];" vertex="1" connectable="0" parent="b1p56JkDS0H2IpYGcqzU-6">
          <mxGeometry y="3" relative="1" as="geometry">
            <mxPoint as="offset" />
          </mxGeometry>
        </mxCell>
        <mxCell id="b1p56JkDS0H2IpYGcqzU-2" value="Manage" style="shape=rhombus;perimeter=rhombusPerimeter;whiteSpace=wrap;html=1;align=center;" vertex="1" parent="1">
          <mxGeometry x="241.5" y="660" width="120" height="60" as="geometry" />
        </mxCell>
        <mxCell id="b1p56JkDS0H2IpYGcqzU-100" style="edgeStyle=orthogonalEdgeStyle;rounded=0;orthogonalLoop=1;jettySize=auto;html=1;exitX=0.75;exitY=0;exitDx=0;exitDy=0;entryX=0;entryY=0.5;entryDx=0;entryDy=0;endArrow=none;endFill=0;" edge="1" parent="1" source="b1p56JkDS0H2IpYGcqzU-5" target="b1p56JkDS0H2IpYGcqzU-67">
          <mxGeometry relative="1" as="geometry">
            <Array as="points">
              <mxPoint x="442" y="670" />
              <mxPoint x="442" y="160" />
            </Array>
          </mxGeometry>
        </mxCell>
        <mxCell id="b1p56JkDS0H2IpYGcqzU-101" value="1..N" style="edgeLabel;html=1;align=center;verticalAlign=middle;resizable=0;points=[];" vertex="1" connectable="0" parent="b1p56JkDS0H2IpYGcqzU-100">
          <mxGeometry x="-0.7462" y="-1" relative="1" as="geometry">
            <mxPoint x="1" y="22" as="offset" />
          </mxGeometry>
        </mxCell>
        <mxCell id="b1p56JkDS0H2IpYGcqzU-5" value="Resort" style="rounded=1;arcSize=10;whiteSpace=wrap;html=1;align=center;" vertex="1" parent="1">
          <mxGeometry x="401.5" y="670" width="80" height="40" as="geometry" />
        </mxCell>
        <mxCell id="b1p56JkDS0H2IpYGcqzU-14" value="1..N" style="edgeStyle=orthogonalEdgeStyle;rounded=0;orthogonalLoop=1;jettySize=auto;html=1;exitX=0;exitY=0.5;exitDx=0;exitDy=0;entryX=0.75;entryY=0;entryDx=0;entryDy=0;endArrow=none;endFill=0;" edge="1" parent="1" source="b1p56JkDS0H2IpYGcqzU-8" target="b1p56JkDS0H2IpYGcqzU-5">
          <mxGeometry x="0.7802" relative="1" as="geometry">
            <Array as="points">
              <mxPoint x="410" y="50" />
              <mxPoint x="410" y="670" />
            </Array>
            <mxPoint as="offset" />
          </mxGeometry>
        </mxCell>
        <mxCell id="b1p56JkDS0H2IpYGcqzU-66" style="edgeStyle=orthogonalEdgeStyle;rounded=0;orthogonalLoop=1;jettySize=auto;html=1;exitX=1;exitY=0.5;exitDx=0;exitDy=0;entryX=0;entryY=0.5;entryDx=0;entryDy=0;endArrow=none;endFill=0;" edge="1" parent="1" source="b1p56JkDS0H2IpYGcqzU-8" target="b1p56JkDS0H2IpYGcqzU-46">
          <mxGeometry relative="1" as="geometry" />
        </mxCell>
        <mxCell id="b1p56JkDS0H2IpYGcqzU-8" value="Service" style="shape=rhombus;perimeter=rhombusPerimeter;whiteSpace=wrap;html=1;align=center;" vertex="1" parent="1">
          <mxGeometry x="520" y="20" width="120" height="60" as="geometry" />
        </mxCell>
        <mxCell id="b1p56JkDS0H2IpYGcqzU-12" style="edgeStyle=orthogonalEdgeStyle;rounded=0;orthogonalLoop=1;jettySize=auto;html=1;exitX=0;exitY=0.5;exitDx=0;exitDy=0;entryX=1;entryY=0.5;entryDx=0;entryDy=0;endArrow=none;endFill=0;" edge="1" parent="1" source="b1p56JkDS0H2IpYGcqzU-10" target="b1p56JkDS0H2IpYGcqzU-5">
          <mxGeometry relative="1" as="geometry" />
        </mxCell>
        <mxCell id="b1p56JkDS0H2IpYGcqzU-27" value="1..N" style="edgeLabel;html=1;align=center;verticalAlign=middle;resizable=0;points=[];" vertex="1" connectable="0" parent="b1p56JkDS0H2IpYGcqzU-12">
          <mxGeometry x="-0.1143" y="-2" relative="1" as="geometry">
            <mxPoint x="-12" y="2" as="offset" />
          </mxGeometry>
        </mxCell>
        <mxCell id="b1p56JkDS0H2IpYGcqzU-72" style="edgeStyle=orthogonalEdgeStyle;rounded=0;orthogonalLoop=1;jettySize=auto;html=1;exitX=1;exitY=0.5;exitDx=0;exitDy=0;entryX=0;entryY=0.5;entryDx=0;entryDy=0;endArrow=none;endFill=0;" edge="1" parent="1" source="b1p56JkDS0H2IpYGcqzU-10" target="dFWbIxj7sa_PWXcJiLs6-10">
          <mxGeometry relative="1" as="geometry">
            <mxPoint x="828.5" y="690" as="targetPoint" />
          </mxGeometry>
        </mxCell>
        <mxCell id="dFWbIxj7sa_PWXcJiLs6-28" value="1..N" style="edgeLabel;html=1;align=center;verticalAlign=middle;resizable=0;points=[];" connectable="0" vertex="1" parent="b1p56JkDS0H2IpYGcqzU-72">
          <mxGeometry x="0.7347" relative="1" as="geometry">
            <mxPoint x="-12" as="offset" />
          </mxGeometry>
        </mxCell>
        <mxCell id="b1p56JkDS0H2IpYGcqzU-10" value="Contains" style="shape=rhombus;perimeter=rhombusPerimeter;whiteSpace=wrap;html=1;align=center;" vertex="1" parent="1">
          <mxGeometry x="521.5" y="660" width="120" height="60" as="geometry" />
        </mxCell>
        <mxCell id="b1p56JkDS0H2IpYGcqzU-15" style="edgeStyle=orthogonalEdgeStyle;rounded=0;orthogonalLoop=1;jettySize=auto;html=1;exitX=0;exitY=0.5;exitDx=0;exitDy=0;entryX=0.75;entryY=1;entryDx=0;entryDy=0;endArrow=none;endFill=0;" edge="1" parent="1" source="b1p56JkDS0H2IpYGcqzU-11" target="b1p56JkDS0H2IpYGcqzU-5">
          <mxGeometry relative="1" as="geometry" />
        </mxCell>
        <mxCell id="b1p56JkDS0H2IpYGcqzU-25" value="1..N" style="edgeLabel;html=1;align=center;verticalAlign=middle;resizable=0;points=[];" vertex="1" connectable="0" parent="b1p56JkDS0H2IpYGcqzU-15">
          <mxGeometry x="0.3815" y="-2" relative="1" as="geometry">
            <mxPoint x="-2" y="-58" as="offset" />
          </mxGeometry>
        </mxCell>
        <mxCell id="b1p56JkDS0H2IpYGcqzU-63" style="edgeStyle=orthogonalEdgeStyle;rounded=0;orthogonalLoop=1;jettySize=auto;html=1;exitX=1;exitY=0.5;exitDx=0;exitDy=0;entryX=0;entryY=0.5;entryDx=0;entryDy=0;endArrow=none;endFill=0;" edge="1" parent="1" source="b1p56JkDS0H2IpYGcqzU-11" target="b1p56JkDS0H2IpYGcqzU-38">
          <mxGeometry relative="1" as="geometry" />
        </mxCell>
        <mxCell id="b1p56JkDS0H2IpYGcqzU-11" value="Composits" style="shape=rhombus;perimeter=rhombusPerimeter;whiteSpace=wrap;html=1;align=center;" vertex="1" parent="1">
          <mxGeometry x="521.5" y="1270" width="120" height="60" as="geometry" />
        </mxCell>
        <mxCell id="b1p56JkDS0H2IpYGcqzU-16" value="User" style="rounded=1;arcSize=10;whiteSpace=wrap;html=1;align=center;" vertex="1" parent="1">
          <mxGeometry x="520" y="-60" width="80" height="40" as="geometry" />
        </mxCell>
        <mxCell id="b1p56JkDS0H2IpYGcqzU-18" value="Reservation" style="rounded=1;arcSize=10;whiteSpace=wrap;html=1;align=center;" vertex="1" parent="1">
          <mxGeometry x="521.5" y="590" width="80" height="40" as="geometry" />
        </mxCell>
        <mxCell id="b1p56JkDS0H2IpYGcqzU-33" style="edgeStyle=orthogonalEdgeStyle;rounded=0;orthogonalLoop=1;jettySize=auto;html=1;exitX=1;exitY=0.5;exitDx=0;exitDy=0;entryX=0.22;entryY=0.5;entryDx=0;entryDy=0;endArrow=none;endFill=0;entryPerimeter=0;" edge="1" parent="1" source="b1p56JkDS0H2IpYGcqzU-19" target="b1p56JkDS0H2IpYGcqzU-37">
          <mxGeometry relative="1" as="geometry">
            <mxPoint x="671.5" y="1220" as="targetPoint" />
          </mxGeometry>
        </mxCell>
        <mxCell id="b1p56JkDS0H2IpYGcqzU-19" value="Facility" style="rounded=1;arcSize=10;whiteSpace=wrap;html=1;align=center;" vertex="1" parent="1">
          <mxGeometry x="521.5" y="1200" width="80" height="40" as="geometry" />
        </mxCell>
        <mxCell id="b1p56JkDS0H2IpYGcqzU-23" value="" style="endArrow=classic;html=1;rounded=0;" edge="1" parent="1">
          <mxGeometry width="50" height="50" relative="1" as="geometry">
            <mxPoint x="241.5" y="730" as="sourcePoint" />
            <mxPoint x="361.5" y="730" as="targetPoint" />
          </mxGeometry>
        </mxCell>
        <mxCell id="b1p56JkDS0H2IpYGcqzU-29" value="" style="endArrow=classic;html=1;rounded=0;" edge="1" parent="1">
          <mxGeometry width="50" height="50" relative="1" as="geometry">
            <mxPoint x="520" y="90" as="sourcePoint" />
            <mxPoint x="640" y="90" as="targetPoint" />
          </mxGeometry>
        </mxCell>
        <mxCell id="b1p56JkDS0H2IpYGcqzU-30" value="" style="endArrow=classic;html=1;rounded=0;" edge="1" parent="1">
          <mxGeometry width="50" height="50" relative="1" as="geometry">
            <mxPoint x="521.5" y="730" as="sourcePoint" />
            <mxPoint x="641.5" y="730" as="targetPoint" />
          </mxGeometry>
        </mxCell>
        <mxCell id="b1p56JkDS0H2IpYGcqzU-31" value="" style="endArrow=classic;html=1;rounded=0;" edge="1" parent="1">
          <mxGeometry width="50" height="50" relative="1" as="geometry">
            <mxPoint x="641.5" y="1340" as="sourcePoint" />
            <mxPoint x="521.5" y="1340" as="targetPoint" />
          </mxGeometry>
        </mxCell>
        <mxCell id="b1p56JkDS0H2IpYGcqzU-73" style="edgeStyle=orthogonalEdgeStyle;rounded=0;orthogonalLoop=1;jettySize=auto;html=1;exitX=0.78;exitY=0.5;exitDx=0;exitDy=0;exitPerimeter=0;entryX=0.5;entryY=0;entryDx=0;entryDy=0;endArrow=none;endFill=0;" edge="1" parent="1" source="b1p56JkDS0H2IpYGcqzU-37" target="b1p56JkDS0H2IpYGcqzU-38">
          <mxGeometry relative="1" as="geometry" />
        </mxCell>
        <mxCell id="b1p56JkDS0H2IpYGcqzU-37" value="IsA" style="strokeWidth=2;html=1;shape=mxgraph.flowchart.extract_or_measurement;whiteSpace=wrap;" vertex="1" parent="1">
          <mxGeometry x="671.5" y="1190" width="95" height="60" as="geometry" />
        </mxCell>
        <mxCell id="b1p56JkDS0H2IpYGcqzU-38" value="Room" style="rounded=1;arcSize=10;whiteSpace=wrap;html=1;align=center;" vertex="1" parent="1">
          <mxGeometry x="828.5" y="1280" width="100" height="40" as="geometry" />
        </mxCell>
        <mxCell id="b1p56JkDS0H2IpYGcqzU-41" value="IsA" style="strokeWidth=2;html=1;shape=mxgraph.flowchart.extract_or_measurement;whiteSpace=wrap;" vertex="1" parent="1">
          <mxGeometry x="671.5" y="580" width="95" height="60" as="geometry" />
        </mxCell>
        <mxCell id="b1p56JkDS0H2IpYGcqzU-43" style="edgeStyle=orthogonalEdgeStyle;rounded=0;orthogonalLoop=1;jettySize=auto;html=1;exitX=1;exitY=0.5;exitDx=0;exitDy=0;entryX=0.22;entryY=0.5;entryDx=0;entryDy=0;entryPerimeter=0;endArrow=none;endFill=0;" edge="1" parent="1" source="b1p56JkDS0H2IpYGcqzU-18" target="b1p56JkDS0H2IpYGcqzU-41">
          <mxGeometry relative="1" as="geometry" />
        </mxCell>
        <mxCell id="b1p56JkDS0H2IpYGcqzU-64" style="edgeStyle=orthogonalEdgeStyle;rounded=0;orthogonalLoop=1;jettySize=auto;html=1;exitX=0.78;exitY=0.5;exitDx=0;exitDy=0;exitPerimeter=0;entryX=0.5;entryY=0;entryDx=0;entryDy=0;endArrow=none;endFill=0;" edge="1" parent="1" source="b1p56JkDS0H2IpYGcqzU-45" target="b1p56JkDS0H2IpYGcqzU-46">
          <mxGeometry relative="1" as="geometry" />
        </mxCell>
        <mxCell id="b1p56JkDS0H2IpYGcqzU-65" style="edgeStyle=orthogonalEdgeStyle;rounded=0;orthogonalLoop=1;jettySize=auto;html=1;exitX=0.78;exitY=0.5;exitDx=0;exitDy=0;exitPerimeter=0;entryX=0.5;entryY=0;entryDx=0;entryDy=0;endArrow=none;endFill=0;" edge="1" parent="1" source="b1p56JkDS0H2IpYGcqzU-45" target="b1p56JkDS0H2IpYGcqzU-48">
          <mxGeometry relative="1" as="geometry">
            <Array as="points">
              <mxPoint x="790" y="-40" />
              <mxPoint x="790" y="120" />
              <mxPoint x="877" y="120" />
            </Array>
          </mxGeometry>
        </mxCell>
        <mxCell id="b1p56JkDS0H2IpYGcqzU-45" value="IsA" style="strokeWidth=2;html=1;shape=mxgraph.flowchart.extract_or_measurement;whiteSpace=wrap;" vertex="1" parent="1">
          <mxGeometry x="680" y="-70" width="95" height="60" as="geometry" />
        </mxCell>
        <mxCell id="b1p56JkDS0H2IpYGcqzU-92" style="edgeStyle=orthogonalEdgeStyle;rounded=0;orthogonalLoop=1;jettySize=auto;html=1;exitX=1;exitY=0.25;exitDx=0;exitDy=0;entryX=0;entryY=0.5;entryDx=0;entryDy=0;endArrow=none;endFill=0;" edge="1" parent="1" source="b1p56JkDS0H2IpYGcqzU-46" target="b1p56JkDS0H2IpYGcqzU-88">
          <mxGeometry relative="1" as="geometry">
            <Array as="points">
              <mxPoint x="980" y="40" />
              <mxPoint x="980" y="40" />
            </Array>
          </mxGeometry>
        </mxCell>
        <mxCell id="b1p56JkDS0H2IpYGcqzU-93" value="1" style="edgeLabel;html=1;align=center;verticalAlign=middle;resizable=0;points=[];" vertex="1" connectable="0" parent="b1p56JkDS0H2IpYGcqzU-92">
          <mxGeometry x="-0.8656" y="2" relative="1" as="geometry">
            <mxPoint x="3" as="offset" />
          </mxGeometry>
        </mxCell>
        <mxCell id="b1p56JkDS0H2IpYGcqzU-46" value="Guest" style="rounded=1;arcSize=10;whiteSpace=wrap;html=1;align=center;" vertex="1" parent="1">
          <mxGeometry x="827" y="30" width="100" height="40" as="geometry" />
        </mxCell>
        <mxCell id="b1p56JkDS0H2IpYGcqzU-47" style="edgeStyle=orthogonalEdgeStyle;rounded=0;orthogonalLoop=1;jettySize=auto;html=1;exitX=1;exitY=0.5;exitDx=0;exitDy=0;entryX=0.22;entryY=0.5;entryDx=0;entryDy=0;entryPerimeter=0;endArrow=none;endFill=0;" edge="1" parent="1" source="b1p56JkDS0H2IpYGcqzU-16" target="b1p56JkDS0H2IpYGcqzU-45">
          <mxGeometry relative="1" as="geometry" />
        </mxCell>
        <mxCell id="b1p56JkDS0H2IpYGcqzU-75" style="edgeStyle=orthogonalEdgeStyle;rounded=0;orthogonalLoop=1;jettySize=auto;html=1;exitX=1;exitY=0.5;exitDx=0;exitDy=0;entryX=0;entryY=0.5;entryDx=0;entryDy=0;endArrow=none;endFill=0;" edge="1" parent="1" source="b1p56JkDS0H2IpYGcqzU-48">
          <mxGeometry relative="1" as="geometry">
            <Array as="points">
              <mxPoint x="927" y="150" />
            </Array>
            <mxPoint x="1000" y="150" as="targetPoint" />
          </mxGeometry>
        </mxCell>
        <mxCell id="b1p56JkDS0H2IpYGcqzU-98" value="1..N" style="edgeLabel;html=1;align=center;verticalAlign=middle;resizable=0;points=[];" vertex="1" connectable="0" parent="b1p56JkDS0H2IpYGcqzU-75">
          <mxGeometry x="-0.3894" y="2" relative="1" as="geometry">
            <mxPoint x="-2" y="2" as="offset" />
          </mxGeometry>
        </mxCell>
        <mxCell id="dFWbIxj7sa_PWXcJiLs6-41" style="edgeStyle=orthogonalEdgeStyle;rounded=0;orthogonalLoop=1;jettySize=auto;html=1;exitX=1;exitY=0.25;exitDx=0;exitDy=0;entryX=0;entryY=0.5;entryDx=0;entryDy=0;endArrow=none;endFill=0;" edge="1" parent="1" source="b1p56JkDS0H2IpYGcqzU-48" target="dFWbIxj7sa_PWXcJiLs6-40">
          <mxGeometry relative="1" as="geometry" />
        </mxCell>
        <mxCell id="b1p56JkDS0H2IpYGcqzU-48" value="Manager" style="rounded=1;arcSize=10;whiteSpace=wrap;html=1;align=center;" vertex="1" parent="1">
          <mxGeometry x="827" y="140" width="100" height="40" as="geometry" />
        </mxCell>
        <mxCell id="b1p56JkDS0H2IpYGcqzU-69" style="edgeStyle=orthogonalEdgeStyle;rounded=0;orthogonalLoop=1;jettySize=auto;html=1;exitX=1;exitY=0.5;exitDx=0;exitDy=0;entryX=0;entryY=0.5;entryDx=0;entryDy=0;endArrow=none;endFill=0;" edge="1" parent="1" source="b1p56JkDS0H2IpYGcqzU-67" target="b1p56JkDS0H2IpYGcqzU-48">
          <mxGeometry relative="1" as="geometry" />
        </mxCell>
        <mxCell id="dFWbIxj7sa_PWXcJiLs6-48" value="1..N" style="edgeLabel;html=1;align=center;verticalAlign=middle;resizable=0;points=[];" connectable="0" vertex="1" parent="b1p56JkDS0H2IpYGcqzU-69">
          <mxGeometry x="0.784" relative="1" as="geometry">
            <mxPoint x="-67" as="offset" />
          </mxGeometry>
        </mxCell>
        <mxCell id="b1p56JkDS0H2IpYGcqzU-67" value="WorkIn" style="shape=rhombus;perimeter=rhombusPerimeter;whiteSpace=wrap;html=1;align=center;" vertex="1" parent="1">
          <mxGeometry x="520" y="130" width="120" height="60" as="geometry" />
        </mxCell>
        <mxCell id="b1p56JkDS0H2IpYGcqzU-68" value="" style="endArrow=classic;html=1;rounded=0;" edge="1" parent="1">
          <mxGeometry width="50" height="50" relative="1" as="geometry">
            <mxPoint x="640" y="200" as="sourcePoint" />
            <mxPoint x="520" y="200" as="targetPoint" />
          </mxGeometry>
        </mxCell>
        <mxCell id="b1p56JkDS0H2IpYGcqzU-82" value="" style="endArrow=classic;html=1;rounded=0;" edge="1" parent="1">
          <mxGeometry width="50" height="50" relative="1" as="geometry">
            <mxPoint x="1000" y="80" as="sourcePoint" />
            <mxPoint x="1120" y="80" as="targetPoint" />
          </mxGeometry>
        </mxCell>
        <mxCell id="b1p56JkDS0H2IpYGcqzU-85" style="edgeStyle=orthogonalEdgeStyle;rounded=0;orthogonalLoop=1;jettySize=auto;html=1;exitX=0;exitY=0.5;exitDx=0;exitDy=0;entryX=1;entryY=0.5;entryDx=0;entryDy=0;endArrow=none;endFill=0;" edge="1" parent="1" source="b1p56JkDS0H2IpYGcqzU-83" target="b1p56JkDS0H2IpYGcqzU-38">
          <mxGeometry relative="1" as="geometry" />
        </mxCell>
        <mxCell id="dFWbIxj7sa_PWXcJiLs6-31" value="1" style="edgeLabel;html=1;align=center;verticalAlign=middle;resizable=0;points=[];" connectable="0" vertex="1" parent="b1p56JkDS0H2IpYGcqzU-85">
          <mxGeometry x="0.8751" y="-2" relative="1" as="geometry">
            <mxPoint as="offset" />
          </mxGeometry>
        </mxCell>
        <mxCell id="b1p56JkDS0H2IpYGcqzU-83" value="Contains" style="shape=rhombus;perimeter=rhombusPerimeter;whiteSpace=wrap;html=1;align=center;" vertex="1" parent="1">
          <mxGeometry x="1141.5" y="1270" width="120" height="60" as="geometry" />
        </mxCell>
        <mxCell id="b1p56JkDS0H2IpYGcqzU-86" value="" style="endArrow=classic;html=1;rounded=0;" edge="1" parent="1">
          <mxGeometry width="50" height="50" relative="1" as="geometry">
            <mxPoint x="1261.5" y="1340" as="sourcePoint" />
            <mxPoint x="1141.5" y="1340" as="targetPoint" />
          </mxGeometry>
        </mxCell>
        <mxCell id="b1p56JkDS0H2IpYGcqzU-90" style="edgeStyle=orthogonalEdgeStyle;rounded=0;orthogonalLoop=1;jettySize=auto;html=1;exitX=1;exitY=0.5;exitDx=0;exitDy=0;endArrow=none;endFill=0;entryX=1;entryY=0.25;entryDx=0;entryDy=0;" edge="1" parent="1" source="b1p56JkDS0H2IpYGcqzU-88" target="dFWbIxj7sa_PWXcJiLs6-10">
          <mxGeometry relative="1" as="geometry">
            <mxPoint x="1380" y="410" as="targetPoint" />
            <Array as="points">
              <mxPoint x="1360" y="40" />
              <mxPoint x="1360" y="790" />
            </Array>
          </mxGeometry>
        </mxCell>
        <mxCell id="b1p56JkDS0H2IpYGcqzU-95" value="1..N" style="edgeLabel;html=1;align=center;verticalAlign=middle;resizable=0;points=[];" vertex="1" connectable="0" parent="b1p56JkDS0H2IpYGcqzU-90">
          <mxGeometry x="0.75" y="-1" relative="1" as="geometry">
            <mxPoint x="-124" as="offset" />
          </mxGeometry>
        </mxCell>
        <mxCell id="dFWbIxj7sa_PWXcJiLs6-32" style="edgeStyle=orthogonalEdgeStyle;rounded=0;orthogonalLoop=1;jettySize=auto;html=1;exitX=1;exitY=0.5;exitDx=0;exitDy=0;entryX=1;entryY=0.25;entryDx=0;entryDy=0;endArrow=none;endFill=0;" edge="1" parent="1" source="b1p56JkDS0H2IpYGcqzU-88" target="dFWbIxj7sa_PWXcJiLs6-11">
          <mxGeometry relative="1" as="geometry">
            <Array as="points">
              <mxPoint x="1360" y="40" />
              <mxPoint x="1360" y="890" />
            </Array>
          </mxGeometry>
        </mxCell>
        <mxCell id="dFWbIxj7sa_PWXcJiLs6-34" value="1..N" style="edgeLabel;html=1;align=center;verticalAlign=middle;resizable=0;points=[];" connectable="0" vertex="1" parent="dFWbIxj7sa_PWXcJiLs6-32">
          <mxGeometry x="0.9715" y="2" relative="1" as="geometry">
            <mxPoint as="offset" />
          </mxGeometry>
        </mxCell>
        <mxCell id="dFWbIxj7sa_PWXcJiLs6-33" style="edgeStyle=orthogonalEdgeStyle;rounded=0;orthogonalLoop=1;jettySize=auto;html=1;exitX=1;exitY=0.5;exitDx=0;exitDy=0;entryX=1;entryY=0.25;entryDx=0;entryDy=0;endArrow=none;endFill=0;" edge="1" parent="1" source="b1p56JkDS0H2IpYGcqzU-88" target="dFWbIxj7sa_PWXcJiLs6-12">
          <mxGeometry relative="1" as="geometry">
            <Array as="points">
              <mxPoint x="1360" y="40" />
              <mxPoint x="1360" y="970" />
            </Array>
          </mxGeometry>
        </mxCell>
        <mxCell id="dFWbIxj7sa_PWXcJiLs6-35" value="1..N" style="edgeLabel;html=1;align=center;verticalAlign=middle;resizable=0;points=[];" connectable="0" vertex="1" parent="dFWbIxj7sa_PWXcJiLs6-33">
          <mxGeometry x="0.9717" y="-1" relative="1" as="geometry">
            <mxPoint as="offset" />
          </mxGeometry>
        </mxCell>
        <mxCell id="b1p56JkDS0H2IpYGcqzU-88" value="Create" style="shape=rhombus;perimeter=rhombusPerimeter;whiteSpace=wrap;html=1;align=center;" vertex="1" parent="1">
          <mxGeometry x="1000" y="10" width="120" height="60" as="geometry" />
        </mxCell>
        <mxCell id="dFWbIxj7sa_PWXcJiLs6-51" style="edgeStyle=orthogonalEdgeStyle;rounded=0;orthogonalLoop=1;jettySize=auto;html=1;exitX=0;exitY=0.5;exitDx=0;exitDy=0;entryX=1;entryY=0.5;entryDx=0;entryDy=0;endArrow=none;endFill=0;" edge="1" parent="1" source="dFWbIxj7sa_PWXcJiLs6-1" target="b1p56JkDS0H2IpYGcqzU-67">
          <mxGeometry relative="1" as="geometry">
            <Array as="points">
              <mxPoint x="680" y="240" />
              <mxPoint x="680" y="160" />
            </Array>
          </mxGeometry>
        </mxCell>
        <mxCell id="dFWbIxj7sa_PWXcJiLs6-55" value="1..N" style="edgeLabel;html=1;align=center;verticalAlign=middle;resizable=0;points=[];" connectable="0" vertex="1" parent="dFWbIxj7sa_PWXcJiLs6-51">
          <mxGeometry x="-0.3393" y="1" relative="1" as="geometry">
            <mxPoint as="offset" />
          </mxGeometry>
        </mxCell>
        <mxCell id="dFWbIxj7sa_PWXcJiLs6-64" style="edgeStyle=orthogonalEdgeStyle;rounded=0;orthogonalLoop=1;jettySize=auto;html=1;exitX=1;exitY=0.75;exitDx=0;exitDy=0;entryX=0;entryY=0.5;entryDx=0;entryDy=0;endArrow=none;endFill=0;" edge="1" parent="1" source="dFWbIxj7sa_PWXcJiLs6-1" target="dFWbIxj7sa_PWXcJiLs6-60">
          <mxGeometry relative="1" as="geometry">
            <Array as="points">
              <mxPoint x="950" y="250" />
              <mxPoint x="950" y="550" />
            </Array>
          </mxGeometry>
        </mxCell>
        <mxCell id="dFWbIxj7sa_PWXcJiLs6-66" value="1..N" style="edgeLabel;html=1;align=center;verticalAlign=middle;resizable=0;points=[];" connectable="0" vertex="1" parent="dFWbIxj7sa_PWXcJiLs6-64">
          <mxGeometry x="-0.9499" y="2" relative="1" as="geometry">
            <mxPoint x="13" y="22" as="offset" />
          </mxGeometry>
        </mxCell>
        <mxCell id="dFWbIxj7sa_PWXcJiLs6-1" value="Cleaner" style="rounded=1;arcSize=10;whiteSpace=wrap;html=1;align=center;" vertex="1" parent="1">
          <mxGeometry x="828.5" y="220" width="100" height="40" as="geometry" />
        </mxCell>
        <mxCell id="dFWbIxj7sa_PWXcJiLs6-52" style="edgeStyle=orthogonalEdgeStyle;rounded=0;orthogonalLoop=1;jettySize=auto;html=1;exitX=0;exitY=0.5;exitDx=0;exitDy=0;entryX=1;entryY=0.5;entryDx=0;entryDy=0;endArrow=none;endFill=0;" edge="1" parent="1" source="dFWbIxj7sa_PWXcJiLs6-2" target="b1p56JkDS0H2IpYGcqzU-67">
          <mxGeometry relative="1" as="geometry">
            <Array as="points">
              <mxPoint x="680" y="350" />
              <mxPoint x="680" y="160" />
            </Array>
          </mxGeometry>
        </mxCell>
        <mxCell id="dFWbIxj7sa_PWXcJiLs6-56" value="1..N" style="edgeLabel;html=1;align=center;verticalAlign=middle;resizable=0;points=[];" connectable="0" vertex="1" parent="dFWbIxj7sa_PWXcJiLs6-52">
          <mxGeometry x="-0.5215" y="2" relative="1" as="geometry">
            <mxPoint as="offset" />
          </mxGeometry>
        </mxCell>
        <mxCell id="dFWbIxj7sa_PWXcJiLs6-76" style="edgeStyle=orthogonalEdgeStyle;rounded=0;orthogonalLoop=1;jettySize=auto;html=1;exitX=1;exitY=0.75;exitDx=0;exitDy=0;entryX=0;entryY=0.5;entryDx=0;entryDy=0;endArrow=none;endFill=0;" edge="1" parent="1" source="dFWbIxj7sa_PWXcJiLs6-2" target="dFWbIxj7sa_PWXcJiLs6-71">
          <mxGeometry relative="1" as="geometry">
            <Array as="points">
              <mxPoint x="940" y="360" />
              <mxPoint x="940" y="640" />
            </Array>
          </mxGeometry>
        </mxCell>
        <mxCell id="dFWbIxj7sa_PWXcJiLs6-2" value="Maintencer" style="rounded=1;arcSize=10;whiteSpace=wrap;html=1;align=center;" vertex="1" parent="1">
          <mxGeometry x="827" y="330" width="100" height="40" as="geometry" />
        </mxCell>
        <mxCell id="dFWbIxj7sa_PWXcJiLs6-54" style="edgeStyle=orthogonalEdgeStyle;rounded=0;orthogonalLoop=1;jettySize=auto;html=1;exitX=0;exitY=0.5;exitDx=0;exitDy=0;entryX=1;entryY=0.5;entryDx=0;entryDy=0;endArrow=none;endFill=0;" edge="1" parent="1" source="dFWbIxj7sa_PWXcJiLs6-3" target="b1p56JkDS0H2IpYGcqzU-67">
          <mxGeometry relative="1" as="geometry">
            <Array as="points">
              <mxPoint x="680" y="490" />
              <mxPoint x="680" y="160" />
            </Array>
          </mxGeometry>
        </mxCell>
        <mxCell id="dFWbIxj7sa_PWXcJiLs6-57" value="1..N" style="edgeLabel;html=1;align=center;verticalAlign=middle;resizable=0;points=[];" connectable="0" vertex="1" parent="dFWbIxj7sa_PWXcJiLs6-54">
          <mxGeometry x="-0.6395" y="-2" relative="1" as="geometry">
            <mxPoint as="offset" />
          </mxGeometry>
        </mxCell>
        <mxCell id="dFWbIxj7sa_PWXcJiLs6-3" value="Security" style="rounded=1;arcSize=10;whiteSpace=wrap;html=1;align=center;" vertex="1" parent="1">
          <mxGeometry x="827" y="470" width="100" height="40" as="geometry" />
        </mxCell>
        <mxCell id="dFWbIxj7sa_PWXcJiLs6-6" style="edgeStyle=orthogonalEdgeStyle;rounded=0;orthogonalLoop=1;jettySize=auto;html=1;exitX=0.5;exitY=0;exitDx=0;exitDy=0;entryX=0.78;entryY=0.5;entryDx=0;entryDy=0;entryPerimeter=0;endArrow=none;endFill=0;" edge="1" parent="1" source="dFWbIxj7sa_PWXcJiLs6-1" target="b1p56JkDS0H2IpYGcqzU-45">
          <mxGeometry relative="1" as="geometry">
            <Array as="points">
              <mxPoint x="877" y="220" />
              <mxPoint x="877" y="200" />
              <mxPoint x="790" y="200" />
              <mxPoint x="790" y="-40" />
            </Array>
          </mxGeometry>
        </mxCell>
        <mxCell id="dFWbIxj7sa_PWXcJiLs6-49" value="1..N" style="edgeLabel;html=1;align=center;verticalAlign=middle;resizable=0;points=[];" connectable="0" vertex="1" parent="dFWbIxj7sa_PWXcJiLs6-6">
          <mxGeometry x="-0.6478" y="-2" relative="1" as="geometry">
            <mxPoint as="offset" />
          </mxGeometry>
        </mxCell>
        <mxCell id="dFWbIxj7sa_PWXcJiLs6-8" style="edgeStyle=orthogonalEdgeStyle;rounded=0;orthogonalLoop=1;jettySize=auto;html=1;exitX=0.5;exitY=0;exitDx=0;exitDy=0;entryX=0.78;entryY=0.5;entryDx=0;entryDy=0;entryPerimeter=0;endArrow=none;endFill=0;" edge="1" parent="1" source="dFWbIxj7sa_PWXcJiLs6-2" target="b1p56JkDS0H2IpYGcqzU-45">
          <mxGeometry relative="1" as="geometry">
            <Array as="points">
              <mxPoint x="877" y="310" />
              <mxPoint x="790" y="310" />
              <mxPoint x="790" y="-40" />
            </Array>
          </mxGeometry>
        </mxCell>
        <mxCell id="dFWbIxj7sa_PWXcJiLs6-58" value="1..N" style="edgeLabel;html=1;align=center;verticalAlign=middle;resizable=0;points=[];" connectable="0" vertex="1" parent="dFWbIxj7sa_PWXcJiLs6-8">
          <mxGeometry x="-0.7801" y="1" relative="1" as="geometry">
            <mxPoint as="offset" />
          </mxGeometry>
        </mxCell>
        <mxCell id="dFWbIxj7sa_PWXcJiLs6-9" style="edgeStyle=orthogonalEdgeStyle;rounded=0;orthogonalLoop=1;jettySize=auto;html=1;exitX=0.5;exitY=0;exitDx=0;exitDy=0;entryX=0.78;entryY=0.5;entryDx=0;entryDy=0;entryPerimeter=0;endArrow=none;endFill=0;" edge="1" parent="1" source="dFWbIxj7sa_PWXcJiLs6-3" target="b1p56JkDS0H2IpYGcqzU-45">
          <mxGeometry relative="1" as="geometry">
            <Array as="points">
              <mxPoint x="877" y="430" />
              <mxPoint x="790" y="430" />
              <mxPoint x="790" y="-40" />
            </Array>
          </mxGeometry>
        </mxCell>
        <mxCell id="dFWbIxj7sa_PWXcJiLs6-59" value="1..N" style="edgeLabel;html=1;align=center;verticalAlign=middle;resizable=0;points=[];" connectable="0" vertex="1" parent="dFWbIxj7sa_PWXcJiLs6-9">
          <mxGeometry x="-0.7845" y="-2" relative="1" as="geometry">
            <mxPoint as="offset" />
          </mxGeometry>
        </mxCell>
        <mxCell id="dFWbIxj7sa_PWXcJiLs6-20" style="edgeStyle=orthogonalEdgeStyle;rounded=0;orthogonalLoop=1;jettySize=auto;html=1;exitX=1;exitY=0.5;exitDx=0;exitDy=0;entryX=0.5;entryY=0;entryDx=0;entryDy=0;endArrow=none;endFill=0;" edge="1" parent="1" source="dFWbIxj7sa_PWXcJiLs6-10" target="b1p56JkDS0H2IpYGcqzU-83">
          <mxGeometry relative="1" as="geometry">
            <Array as="points">
              <mxPoint x="960" y="810" />
              <mxPoint x="1202" y="810" />
            </Array>
          </mxGeometry>
        </mxCell>
        <mxCell id="dFWbIxj7sa_PWXcJiLs6-21" value="1" style="edgeLabel;html=1;align=center;verticalAlign=middle;resizable=0;points=[];" connectable="0" vertex="1" parent="dFWbIxj7sa_PWXcJiLs6-20">
          <mxGeometry x="-0.9359" y="-1" relative="1" as="geometry">
            <mxPoint as="offset" />
          </mxGeometry>
        </mxCell>
        <mxCell id="dFWbIxj7sa_PWXcJiLs6-10" value="CleanRersevation" style="rounded=1;arcSize=10;whiteSpace=wrap;html=1;align=center;" vertex="1" parent="1">
          <mxGeometry x="827" y="780" width="133" height="40" as="geometry" />
        </mxCell>
        <mxCell id="dFWbIxj7sa_PWXcJiLs6-18" style="edgeStyle=orthogonalEdgeStyle;rounded=0;orthogonalLoop=1;jettySize=auto;html=1;exitX=1;exitY=0.5;exitDx=0;exitDy=0;entryX=0.5;entryY=0;entryDx=0;entryDy=0;endArrow=none;endFill=0;" edge="1" parent="1" source="dFWbIxj7sa_PWXcJiLs6-11" target="b1p56JkDS0H2IpYGcqzU-83">
          <mxGeometry relative="1" as="geometry">
            <Array as="points">
              <mxPoint x="960" y="910" />
              <mxPoint x="1202" y="910" />
            </Array>
          </mxGeometry>
        </mxCell>
        <mxCell id="dFWbIxj7sa_PWXcJiLs6-22" value="1" style="edgeLabel;html=1;align=center;verticalAlign=middle;resizable=0;points=[];" connectable="0" vertex="1" parent="dFWbIxj7sa_PWXcJiLs6-18">
          <mxGeometry x="-0.932" y="1" relative="1" as="geometry">
            <mxPoint as="offset" />
          </mxGeometry>
        </mxCell>
        <mxCell id="dFWbIxj7sa_PWXcJiLs6-24" style="edgeStyle=orthogonalEdgeStyle;rounded=0;orthogonalLoop=1;jettySize=auto;html=1;exitX=0;exitY=0.5;exitDx=0;exitDy=0;entryX=1;entryY=0.5;entryDx=0;entryDy=0;endArrow=none;endFill=0;" edge="1" parent="1" source="dFWbIxj7sa_PWXcJiLs6-11" target="b1p56JkDS0H2IpYGcqzU-10">
          <mxGeometry relative="1" as="geometry" />
        </mxCell>
        <mxCell id="dFWbIxj7sa_PWXcJiLs6-29" value="1..N" style="edgeLabel;html=1;align=center;verticalAlign=middle;resizable=0;points=[];" connectable="0" vertex="1" parent="dFWbIxj7sa_PWXcJiLs6-24">
          <mxGeometry x="-0.7295" y="-2" relative="1" as="geometry">
            <mxPoint as="offset" />
          </mxGeometry>
        </mxCell>
        <mxCell id="dFWbIxj7sa_PWXcJiLs6-11" value="MaintanceRersevation" style="rounded=1;arcSize=10;whiteSpace=wrap;html=1;align=center;" vertex="1" parent="1">
          <mxGeometry x="828.5" y="880" width="131.5" height="40" as="geometry" />
        </mxCell>
        <mxCell id="dFWbIxj7sa_PWXcJiLs6-17" style="edgeStyle=orthogonalEdgeStyle;rounded=0;orthogonalLoop=1;jettySize=auto;html=1;exitX=1;exitY=0.5;exitDx=0;exitDy=0;entryX=0.5;entryY=0;entryDx=0;entryDy=0;endArrow=none;endFill=0;" edge="1" parent="1" source="dFWbIxj7sa_PWXcJiLs6-12" target="b1p56JkDS0H2IpYGcqzU-83">
          <mxGeometry relative="1" as="geometry">
            <Array as="points">
              <mxPoint x="960" y="990" />
              <mxPoint x="1202" y="990" />
            </Array>
          </mxGeometry>
        </mxCell>
        <mxCell id="dFWbIxj7sa_PWXcJiLs6-23" value="1" style="edgeLabel;html=1;align=center;verticalAlign=middle;resizable=0;points=[];" connectable="0" vertex="1" parent="dFWbIxj7sa_PWXcJiLs6-17">
          <mxGeometry x="-0.9293" y="2" relative="1" as="geometry">
            <mxPoint as="offset" />
          </mxGeometry>
        </mxCell>
        <mxCell id="dFWbIxj7sa_PWXcJiLs6-26" style="edgeStyle=orthogonalEdgeStyle;rounded=0;orthogonalLoop=1;jettySize=auto;html=1;exitX=0;exitY=0.5;exitDx=0;exitDy=0;entryX=1;entryY=0.5;entryDx=0;entryDy=0;endArrow=none;endFill=0;" edge="1" parent="1" source="dFWbIxj7sa_PWXcJiLs6-12" target="b1p56JkDS0H2IpYGcqzU-10">
          <mxGeometry relative="1" as="geometry" />
        </mxCell>
        <mxCell id="dFWbIxj7sa_PWXcJiLs6-30" value="1..N" style="edgeLabel;html=1;align=center;verticalAlign=middle;resizable=0;points=[];" connectable="0" vertex="1" parent="dFWbIxj7sa_PWXcJiLs6-26">
          <mxGeometry x="-0.7636" relative="1" as="geometry">
            <mxPoint as="offset" />
          </mxGeometry>
        </mxCell>
        <mxCell id="dFWbIxj7sa_PWXcJiLs6-12" value="SecurityRersevation" style="rounded=1;arcSize=10;whiteSpace=wrap;html=1;align=center;" vertex="1" parent="1">
          <mxGeometry x="827" y="960" width="133" height="40" as="geometry" />
        </mxCell>
        <mxCell id="dFWbIxj7sa_PWXcJiLs6-13" style="edgeStyle=orthogonalEdgeStyle;rounded=0;orthogonalLoop=1;jettySize=auto;html=1;exitX=0.5;exitY=0;exitDx=0;exitDy=0;entryX=0.78;entryY=0.5;entryDx=0;entryDy=0;entryPerimeter=0;" edge="1" parent="1" source="dFWbIxj7sa_PWXcJiLs6-10" target="b1p56JkDS0H2IpYGcqzU-41">
          <mxGeometry relative="1" as="geometry">
            <Array as="points">
              <mxPoint x="894" y="760" />
              <mxPoint x="800" y="760" />
              <mxPoint x="800" y="610" />
            </Array>
          </mxGeometry>
        </mxCell>
        <mxCell id="dFWbIxj7sa_PWXcJiLs6-14" style="edgeStyle=orthogonalEdgeStyle;rounded=0;orthogonalLoop=1;jettySize=auto;html=1;exitX=0.5;exitY=0;exitDx=0;exitDy=0;entryX=0.78;entryY=0.5;entryDx=0;entryDy=0;entryPerimeter=0;" edge="1" parent="1" source="dFWbIxj7sa_PWXcJiLs6-11" target="b1p56JkDS0H2IpYGcqzU-41">
          <mxGeometry relative="1" as="geometry">
            <Array as="points">
              <mxPoint x="894" y="860" />
              <mxPoint x="800" y="860" />
              <mxPoint x="800" y="610" />
            </Array>
          </mxGeometry>
        </mxCell>
        <mxCell id="dFWbIxj7sa_PWXcJiLs6-16" style="edgeStyle=orthogonalEdgeStyle;rounded=0;orthogonalLoop=1;jettySize=auto;html=1;exitX=0.5;exitY=0;exitDx=0;exitDy=0;entryX=0.78;entryY=0.5;entryDx=0;entryDy=0;entryPerimeter=0;" edge="1" parent="1" source="dFWbIxj7sa_PWXcJiLs6-12" target="b1p56JkDS0H2IpYGcqzU-41">
          <mxGeometry relative="1" as="geometry">
            <Array as="points">
              <mxPoint x="894" y="940" />
              <mxPoint x="800" y="940" />
              <mxPoint x="800" y="610" />
            </Array>
          </mxGeometry>
        </mxCell>
        <mxCell id="dFWbIxj7sa_PWXcJiLs6-38" style="edgeStyle=orthogonalEdgeStyle;rounded=0;orthogonalLoop=1;jettySize=auto;html=1;exitX=1;exitY=0.5;exitDx=0;exitDy=0;entryX=1;entryY=0.5;entryDx=0;entryDy=0;endArrow=none;endFill=0;" edge="1" parent="1" source="dFWbIxj7sa_PWXcJiLs6-37" target="dFWbIxj7sa_PWXcJiLs6-1">
          <mxGeometry relative="1" as="geometry" />
        </mxCell>
        <mxCell id="dFWbIxj7sa_PWXcJiLs6-68" value="1..N" style="edgeLabel;html=1;align=center;verticalAlign=middle;resizable=0;points=[];" connectable="0" vertex="1" parent="dFWbIxj7sa_PWXcJiLs6-38">
          <mxGeometry x="-0.0096" relative="1" as="geometry">
            <mxPoint as="offset" />
          </mxGeometry>
        </mxCell>
        <mxCell id="dFWbIxj7sa_PWXcJiLs6-37" value="AssignClean" style="shape=rhombus;perimeter=rhombusPerimeter;whiteSpace=wrap;html=1;align=center;" vertex="1" parent="1">
          <mxGeometry x="1000" y="120" width="120" height="60" as="geometry" />
        </mxCell>
        <mxCell id="dFWbIxj7sa_PWXcJiLs6-39" value="" style="endArrow=classic;html=1;rounded=0;" edge="1" parent="1">
          <mxGeometry width="50" height="50" relative="1" as="geometry">
            <mxPoint x="1000" y="190" as="sourcePoint" />
            <mxPoint x="1120" y="190" as="targetPoint" />
          </mxGeometry>
        </mxCell>
        <mxCell id="dFWbIxj7sa_PWXcJiLs6-43" style="edgeStyle=orthogonalEdgeStyle;rounded=0;orthogonalLoop=1;jettySize=auto;html=1;exitX=1;exitY=0.5;exitDx=0;exitDy=0;entryX=1;entryY=0.5;entryDx=0;entryDy=0;endArrow=none;endFill=0;" edge="1" parent="1" source="dFWbIxj7sa_PWXcJiLs6-40" target="dFWbIxj7sa_PWXcJiLs6-2">
          <mxGeometry relative="1" as="geometry" />
        </mxCell>
        <mxCell id="dFWbIxj7sa_PWXcJiLs6-69" value="1..N" style="edgeLabel;html=1;align=center;verticalAlign=middle;resizable=0;points=[];" connectable="0" vertex="1" parent="dFWbIxj7sa_PWXcJiLs6-43">
          <mxGeometry x="0.1413" y="1" relative="1" as="geometry">
            <mxPoint as="offset" />
          </mxGeometry>
        </mxCell>
        <mxCell id="dFWbIxj7sa_PWXcJiLs6-40" value="AssignMaintain" style="shape=rhombus;perimeter=rhombusPerimeter;whiteSpace=wrap;html=1;align=center;" vertex="1" parent="1">
          <mxGeometry x="1000" y="260" width="120" height="60" as="geometry" />
        </mxCell>
        <mxCell id="dFWbIxj7sa_PWXcJiLs6-42" value="" style="endArrow=classic;html=1;rounded=0;" edge="1" parent="1">
          <mxGeometry width="50" height="50" relative="1" as="geometry">
            <mxPoint x="1000" y="330" as="sourcePoint" />
            <mxPoint x="1120" y="330" as="targetPoint" />
          </mxGeometry>
        </mxCell>
        <mxCell id="dFWbIxj7sa_PWXcJiLs6-45" style="edgeStyle=orthogonalEdgeStyle;rounded=0;orthogonalLoop=1;jettySize=auto;html=1;exitX=0;exitY=0.5;exitDx=0;exitDy=0;entryX=1;entryY=0.25;entryDx=0;entryDy=0;endArrow=none;endFill=0;" edge="1" parent="1" source="dFWbIxj7sa_PWXcJiLs6-44" target="b1p56JkDS0H2IpYGcqzU-48">
          <mxGeometry relative="1" as="geometry" />
        </mxCell>
        <mxCell id="dFWbIxj7sa_PWXcJiLs6-47" style="edgeStyle=orthogonalEdgeStyle;rounded=0;orthogonalLoop=1;jettySize=auto;html=1;exitX=1;exitY=0.5;exitDx=0;exitDy=0;entryX=1;entryY=0.75;entryDx=0;entryDy=0;endArrow=none;endFill=0;" edge="1" parent="1" source="dFWbIxj7sa_PWXcJiLs6-44" target="dFWbIxj7sa_PWXcJiLs6-3">
          <mxGeometry relative="1" as="geometry" />
        </mxCell>
        <mxCell id="dFWbIxj7sa_PWXcJiLs6-70" value="1..N" style="edgeLabel;html=1;align=center;verticalAlign=middle;resizable=0;points=[];" connectable="0" vertex="1" parent="dFWbIxj7sa_PWXcJiLs6-47">
          <mxGeometry x="0.0321" relative="1" as="geometry">
            <mxPoint as="offset" />
          </mxGeometry>
        </mxCell>
        <mxCell id="dFWbIxj7sa_PWXcJiLs6-44" value="AssignMaintain" style="shape=rhombus;perimeter=rhombusPerimeter;whiteSpace=wrap;html=1;align=center;" vertex="1" parent="1">
          <mxGeometry x="1000" y="410" width="120" height="60" as="geometry" />
        </mxCell>
        <mxCell id="dFWbIxj7sa_PWXcJiLs6-46" value="" style="endArrow=classic;html=1;rounded=0;" edge="1" parent="1">
          <mxGeometry width="50" height="50" relative="1" as="geometry">
            <mxPoint x="1000" y="479.5" as="sourcePoint" />
            <mxPoint x="1120" y="479.5" as="targetPoint" />
          </mxGeometry>
        </mxCell>
        <mxCell id="dFWbIxj7sa_PWXcJiLs6-63" style="edgeStyle=orthogonalEdgeStyle;rounded=0;orthogonalLoop=1;jettySize=auto;html=1;exitX=1;exitY=0.5;exitDx=0;exitDy=0;entryX=1;entryY=0.5;entryDx=0;entryDy=0;endArrow=none;endFill=0;" edge="1" parent="1" source="dFWbIxj7sa_PWXcJiLs6-60" target="dFWbIxj7sa_PWXcJiLs6-10">
          <mxGeometry relative="1" as="geometry">
            <Array as="points">
              <mxPoint x="1340" y="550" />
              <mxPoint x="1340" y="800" />
            </Array>
          </mxGeometry>
        </mxCell>
        <mxCell id="dFWbIxj7sa_PWXcJiLs6-65" value="1..N" style="edgeLabel;html=1;align=center;verticalAlign=middle;resizable=0;points=[];" connectable="0" vertex="1" parent="dFWbIxj7sa_PWXcJiLs6-63">
          <mxGeometry x="0.8542" y="-4" relative="1" as="geometry">
            <mxPoint x="-42" y="4" as="offset" />
          </mxGeometry>
        </mxCell>
        <mxCell id="dFWbIxj7sa_PWXcJiLs6-60" value="DoClean" style="shape=rhombus;perimeter=rhombusPerimeter;whiteSpace=wrap;html=1;align=center;" vertex="1" parent="1">
          <mxGeometry x="1000" y="520" width="120" height="60" as="geometry" />
        </mxCell>
        <mxCell id="dFWbIxj7sa_PWXcJiLs6-62" value="" style="endArrow=classic;html=1;rounded=0;" edge="1" parent="1">
          <mxGeometry width="50" height="50" relative="1" as="geometry">
            <mxPoint x="1000" y="590" as="sourcePoint" />
            <mxPoint x="1120" y="590" as="targetPoint" />
          </mxGeometry>
        </mxCell>
        <mxCell id="dFWbIxj7sa_PWXcJiLs6-75" style="edgeStyle=orthogonalEdgeStyle;rounded=0;orthogonalLoop=1;jettySize=auto;html=1;exitX=1;exitY=0.5;exitDx=0;exitDy=0;entryX=1;entryY=0.5;entryDx=0;entryDy=0;endArrow=none;endFill=0;" edge="1" parent="1" source="dFWbIxj7sa_PWXcJiLs6-71" target="dFWbIxj7sa_PWXcJiLs6-11">
          <mxGeometry relative="1" as="geometry">
            <Array as="points">
              <mxPoint x="1320" y="640" />
              <mxPoint x="1320" y="900" />
            </Array>
          </mxGeometry>
        </mxCell>
        <mxCell id="5-KRuT3FK_tx15wsnABD-1" value="1..N" style="edgeLabel;html=1;align=center;verticalAlign=middle;resizable=0;points=[];" connectable="0" vertex="1" parent="dFWbIxj7sa_PWXcJiLs6-75">
          <mxGeometry x="0.8964" y="-1" relative="1" as="geometry">
            <mxPoint x="8" y="1" as="offset" />
          </mxGeometry>
        </mxCell>
        <mxCell id="dFWbIxj7sa_PWXcJiLs6-71" value="DoMaintance" style="shape=rhombus;perimeter=rhombusPerimeter;whiteSpace=wrap;html=1;align=center;" vertex="1" parent="1">
          <mxGeometry x="1000" y="610" width="120" height="60" as="geometry" />
        </mxCell>
        <mxCell id="dFWbIxj7sa_PWXcJiLs6-72" value="" style="endArrow=classic;html=1;rounded=0;" edge="1" parent="1">
          <mxGeometry width="50" height="50" relative="1" as="geometry">
            <mxPoint x="1000" y="680" as="sourcePoint" />
            <mxPoint x="1120" y="680" as="targetPoint" />
          </mxGeometry>
        </mxCell>
        <mxCell id="dFWbIxj7sa_PWXcJiLs6-77" style="edgeStyle=orthogonalEdgeStyle;rounded=0;orthogonalLoop=1;jettySize=auto;html=1;exitX=0;exitY=0.5;exitDx=0;exitDy=0;entryX=0.75;entryY=1;entryDx=0;entryDy=0;endArrow=none;endFill=0;" edge="1" parent="1" source="dFWbIxj7sa_PWXcJiLs6-73" target="dFWbIxj7sa_PWXcJiLs6-3">
          <mxGeometry relative="1" as="geometry" />
        </mxCell>
        <mxCell id="dFWbIxj7sa_PWXcJiLs6-78" style="edgeStyle=orthogonalEdgeStyle;rounded=0;orthogonalLoop=1;jettySize=auto;html=1;exitX=1;exitY=0.5;exitDx=0;exitDy=0;entryX=1;entryY=0.5;entryDx=0;entryDy=0;endArrow=none;endFill=0;" edge="1" parent="1" source="dFWbIxj7sa_PWXcJiLs6-73" target="dFWbIxj7sa_PWXcJiLs6-12">
          <mxGeometry relative="1" as="geometry">
            <Array as="points">
              <mxPoint x="1310" y="720" />
              <mxPoint x="1310" y="980" />
            </Array>
          </mxGeometry>
        </mxCell>
        <mxCell id="dFWbIxj7sa_PWXcJiLs6-79" value="1" style="edgeLabel;html=1;align=center;verticalAlign=middle;resizable=0;points=[];" connectable="0" vertex="1" parent="dFWbIxj7sa_PWXcJiLs6-78">
          <mxGeometry x="0.938" y="2" relative="1" as="geometry">
            <mxPoint as="offset" />
          </mxGeometry>
        </mxCell>
        <mxCell id="5-KRuT3FK_tx15wsnABD-2" value="1..N" style="edgeLabel;html=1;align=center;verticalAlign=middle;resizable=0;points=[];" connectable="0" vertex="1" parent="dFWbIxj7sa_PWXcJiLs6-78">
          <mxGeometry x="0.9205" y="1" relative="1" as="geometry">
            <mxPoint as="offset" />
          </mxGeometry>
        </mxCell>
        <mxCell id="dFWbIxj7sa_PWXcJiLs6-73" value="DoSecurty" style="shape=rhombus;perimeter=rhombusPerimeter;whiteSpace=wrap;html=1;align=center;" vertex="1" parent="1">
          <mxGeometry x="1000" y="690" width="120" height="60" as="geometry" />
        </mxCell>
        <mxCell id="dFWbIxj7sa_PWXcJiLs6-74" value="" style="endArrow=classic;html=1;rounded=0;" edge="1" parent="1">
          <mxGeometry width="50" height="50" relative="1" as="geometry">
            <mxPoint x="1000" y="760" as="sourcePoint" />
            <mxPoint x="1120" y="760" as="targetPoint" />
          </mxGeometry>
        </mxCell>
      </root>
    </mxGraphModel>
  </diagram>
</mxfile>
